<svg width="753" height="236" viewBox="0 0 753 236" fill="none" xmlns="http://www.w3.org/2000/svg">
<path d="M190.743 161.686C190.253 156.242 191.147 151.754 193.422 148.203C195.687 144.662 198.792 141.854 202.738 139.781C206.672 137.718 210.926 136.272 215.498 135.442C220.092 134.591 224.409 134.166 228.471 134.166C233.884 134.166 238.063 134.666 241.019 135.655V130.636C241.019 125.021 240.381 120.853 239.105 118.13C237.829 115.408 235.553 114.004 232.3 113.919C228.556 113.813 226.111 114.77 224.983 116.812C223.846 118.832 222.878 121.267 222.091 124.128C221.602 125.999 220.23 127.467 217.965 128.509C215.69 129.53 213.286 130.04 210.734 130.04C207.672 130.04 204.832 129.338 202.227 127.913C199.611 126.467 198.41 124.372 198.612 121.618C198.888 117.088 202.248 113.409 208.692 110.602C215.158 107.794 223.622 106.433 234.086 106.518C241.679 106.518 248.559 107.486 254.716 109.411C260.862 111.346 265.743 114.472 269.348 118.811C272.942 123.128 274.75 128.839 274.75 135.953C274.633 141.089 274.58 145.97 274.58 150.585C274.58 155.21 274.58 159.007 274.58 161.984C274.58 166.695 275.707 169.205 277.982 169.513C279.173 169.598 280.205 169.258 281.087 168.492C281.991 167.705 282.927 167.407 283.895 167.599C284.799 167.801 285.256 168.535 285.256 169.811C285.256 171.087 284.533 172.49 283.087 174.022C281.662 175.553 279.322 176.893 276.068 178.02C272.804 179.147 268.369 179.658 262.755 179.551C257.332 179.466 252.589 178.339 248.505 176.191C244.422 174.011 241.976 170.746 241.189 166.408C238.914 170.746 235.415 174.054 230.683 176.319C225.941 178.584 220.911 179.721 215.583 179.721C208.884 179.721 203.216 178.084 198.569 174.83C193.943 171.576 191.338 167.195 190.743 161.686ZM223.452 153.094C223.133 156.752 223.761 159.794 225.324 162.197C226.908 164.611 229.333 165.759 232.597 165.642C236.053 165.557 238.265 164.111 239.233 161.304C240.222 158.496 240.775 155.168 240.892 151.308L241.019 143.184C240.53 142.992 239.658 142.716 238.382 142.375C237.106 142.035 235.713 141.865 234.214 141.865C231.938 141.865 229.705 142.588 227.493 144.034C225.281 145.459 223.931 148.479 223.452 153.094Z" fill="#005430"/>
<path d="M291.305 80.3597C290.22 80.2533 289.433 79.7535 288.923 78.8709C288.434 77.999 288.295 77.0207 288.497 75.936C288.689 74.8301 289.284 73.9794 290.284 73.3839C293.517 71.5123 297.664 70.0449 302.747 68.9602C307.819 67.8862 312.721 67.3439 317.464 67.3439C321.398 67.3439 324.578 67.6735 326.992 68.3222C329.427 68.9496 331.182 70.3214 332.266 72.4481C333.34 74.5749 333.883 77.8501 333.883 82.2738V131.232C337.626 129.849 340.773 128.074 343.325 125.915C345.899 123.735 348.174 121.47 350.131 119.109C352.109 116.727 354.151 114.494 356.256 112.389C358.383 110.262 360.892 108.497 363.785 107.072C366.698 105.626 370.335 104.849 374.674 104.732C377.928 104.541 381.065 105.03 384.074 106.221C387.073 107.412 389.54 109.199 391.475 111.581C393.4 113.941 394.261 116.834 394.07 120.258C393.953 123.607 392.804 126.319 390.625 128.382C388.466 130.456 385.914 131.349 382.968 131.062C380.214 130.785 378.045 130.126 376.46 129.105C374.865 128.063 373.61 126.925 372.675 125.702C371.739 124.458 370.771 123.363 369.782 122.427C368.815 121.491 367.496 121.023 365.827 121.023C363.753 121.023 361.849 121.693 360.127 123.023C358.393 124.362 356.596 125.989 354.725 127.914C352.853 129.818 350.641 131.7 348.089 133.571C350.748 133.295 353.162 133.146 355.32 133.146C362.009 133.146 367.4 134.72 371.484 137.867C375.588 141.015 378.885 146.332 381.352 153.818L385.35 165.345C385.829 166.738 386.584 167.897 387.605 168.833C388.647 169.769 389.774 170.3 390.965 170.407C391.645 170.492 392.283 170.598 392.879 170.705C393.474 170.79 393.964 170.992 394.368 171.3C395.644 172.183 396.027 173.459 395.516 175.128C395.027 176.808 393.995 177.638 392.411 177.638H363.445C361.286 177.638 359.319 177 357.532 175.724C355.767 174.448 354.491 172.725 353.704 170.534C353.108 168.663 352.353 166.494 351.45 164.027C350.567 161.559 349.493 158.518 348.217 154.881C346.345 149.16 344.219 145.609 341.837 144.248C339.476 142.865 336.828 142.312 333.883 142.589V163.133C333.883 164.441 334.244 165.664 334.988 166.791C335.722 167.897 336.626 168.854 337.711 169.641C338.221 169.843 338.668 170.098 339.072 170.407C339.465 170.694 339.848 170.992 340.22 171.3C341.603 172.183 342.028 173.459 341.496 175.128C340.954 176.808 339.891 177.638 338.306 177.638H296.026C294.548 177.638 293.538 176.808 293.006 175.128C292.464 173.459 292.836 172.183 294.112 171.3C294.591 170.992 295.069 170.694 295.558 170.407C296.069 170.098 296.558 169.801 297.047 169.514C299.705 168.238 301.045 166.111 301.045 163.133V82.9969C301.045 81.4443 300.503 80.5192 299.429 80.2321C298.344 79.9237 297.068 79.8918 295.601 80.147C294.123 80.3809 292.687 80.4447 291.305 80.3597Z" fill="#005430"/>
<path d="M399.949 161.686C399.46 156.242 400.353 151.754 402.629 148.203C404.894 144.662 407.999 141.854 411.944 139.781C415.879 137.718 420.132 136.272 424.705 135.442C429.299 134.591 433.616 134.166 437.678 134.166C443.091 134.166 447.27 134.666 450.226 135.655V130.636C450.226 125.021 449.588 120.853 448.312 118.13C447.036 115.408 444.76 114.004 441.506 113.919C437.763 113.813 435.317 114.77 434.19 116.812C433.052 118.832 432.085 121.267 431.298 124.128C430.809 125.999 429.437 127.467 427.172 128.509C424.896 129.53 422.493 130.04 419.941 130.04C416.878 130.04 414.039 129.338 411.434 127.913C408.818 126.467 407.616 124.372 407.818 121.618C408.095 117.088 411.455 113.409 417.899 110.602C424.365 107.794 432.829 106.433 443.293 106.518C450.885 106.518 457.765 107.486 463.922 109.411C470.069 111.346 474.95 114.472 478.555 118.811C482.149 123.128 483.957 128.839 483.957 135.953C483.84 141.089 483.786 145.97 483.786 150.585C483.786 155.21 483.786 159.007 483.786 161.984C483.786 166.695 484.914 169.205 487.189 169.513C488.38 169.598 489.412 169.258 490.294 168.492C491.198 167.705 492.134 167.407 493.102 167.599C494.005 167.801 494.463 168.535 494.463 169.811C494.463 171.087 493.74 172.49 492.293 174.022C490.869 175.553 488.529 176.893 485.275 178.02C482.011 179.147 477.576 179.658 471.962 179.551C466.538 179.466 461.796 178.339 457.712 176.191C453.629 174.011 451.183 170.746 450.396 166.408C448.121 170.746 444.622 174.054 439.89 176.319C435.147 178.584 430.118 179.721 424.79 179.721C418.091 179.721 412.423 178.084 407.776 174.83C403.15 171.576 400.545 167.195 399.949 161.686ZM432.659 153.094C432.34 156.752 432.967 159.794 434.531 162.197C436.115 164.611 438.54 165.759 441.804 165.642C445.26 165.557 447.472 164.111 448.44 161.304C449.429 158.496 449.981 155.168 450.098 151.308L450.226 143.184C449.737 142.992 448.865 142.716 447.589 142.375C446.313 142.035 444.92 141.865 443.42 141.865C441.145 141.865 438.912 142.588 436.7 144.034C434.488 145.459 433.138 148.479 432.659 153.094Z" fill="#005430"/>
<path d="M500.512 80.1896C499.427 80.1045 498.64 79.5941 498.13 78.6583C497.641 77.7226 497.502 76.723 497.704 75.6383C497.896 74.5324 498.491 73.7455 499.491 73.2564C502.724 71.2785 506.913 69.7472 512.081 68.6626C517.271 67.5885 522.29 67.0462 527.139 67.0462C531.073 67.0462 534.253 67.3759 536.667 68.0245C539.07 68.6519 540.846 70.0237 541.984 72.1504C543.111 74.2772 543.685 77.5524 543.685 81.9761V163.133C543.685 165.919 544.961 168.089 547.513 169.641C547.907 169.843 548.321 170.098 548.747 170.407C549.193 170.694 549.619 170.992 550.023 171.3C551.32 172.183 551.692 173.459 551.129 175.128C550.586 176.808 549.576 177.638 548.109 177.638H505.233C503.755 177.638 502.766 176.808 502.256 175.128C501.767 173.459 502.171 172.183 503.447 171.3C504.149 170.79 505.148 170.194 506.424 169.514C509.083 168.131 510.422 166.004 510.422 163.133V82.6992C510.422 81.5401 510.093 80.7638 509.444 80.3597C508.817 79.9663 507.955 79.7643 506.85 79.7643C505.882 79.7643 504.829 79.8387 503.702 79.9769C502.564 80.1258 501.501 80.1896 500.512 80.1896Z" fill="#005430"/>
<path d="M556.966 161.686C556.477 156.242 557.37 151.754 559.646 148.203C561.911 144.662 565.016 141.854 568.961 139.781C572.896 137.718 577.149 136.272 581.722 135.442C586.316 134.591 590.633 134.166 594.695 134.166C600.108 134.166 604.287 134.666 607.243 135.655V130.636C607.243 125.021 606.605 120.853 605.329 118.13C604.053 115.408 601.777 114.004 598.523 113.919C594.78 113.813 592.334 114.77 591.207 116.812C590.069 118.832 589.102 121.267 588.315 124.128C587.826 125.999 586.454 127.467 584.189 128.509C581.913 129.53 579.51 130.04 576.958 130.04C573.895 130.04 571.056 129.338 568.451 127.913C565.835 126.467 564.633 124.372 564.835 121.618C565.112 117.088 568.472 113.409 574.916 110.602C581.381 107.794 589.846 106.433 600.31 106.518C607.902 106.518 614.782 107.486 620.939 109.411C627.086 111.346 631.967 114.472 635.571 118.811C639.166 123.128 640.973 128.839 640.973 135.953C640.856 141.089 640.803 145.97 640.803 150.585C640.803 155.21 640.803 159.007 640.803 161.984C640.803 166.695 641.93 169.205 644.206 169.513C645.397 169.598 646.429 169.258 647.311 168.492C648.215 167.705 649.151 167.407 650.118 167.599C651.022 167.801 651.48 168.535 651.48 169.811C651.48 171.087 650.756 172.49 649.31 174.022C647.885 175.553 645.546 176.893 642.292 178.02C639.027 179.147 634.593 179.658 628.978 179.551C623.555 179.466 618.812 178.339 614.729 176.191C610.646 174.011 608.2 170.746 607.413 166.408C605.137 170.746 601.639 174.054 596.907 176.319C592.164 178.584 587.134 179.721 581.807 179.721C575.108 179.721 569.44 178.084 564.793 174.83C560.167 171.576 557.562 167.195 556.966 161.686ZM589.676 153.094C589.357 156.752 589.984 159.794 591.547 162.197C593.132 164.611 595.556 165.759 598.821 165.642C602.277 165.557 604.489 164.111 605.456 161.304C606.445 158.496 606.998 155.168 607.115 151.308L607.243 143.184C606.754 142.992 605.882 142.716 604.606 142.375C603.33 142.035 601.937 141.865 600.437 141.865C598.162 141.865 595.929 142.588 593.717 144.034C591.505 145.459 590.154 148.479 589.676 153.094Z" fill="#005430"/>
<path d="M657.06 161.686C656.571 156.242 657.465 151.754 659.74 148.203C662.005 144.662 665.11 141.854 669.055 139.781C672.99 137.718 677.243 136.272 681.816 135.442C686.41 134.591 690.727 134.166 694.789 134.166C700.202 134.166 704.381 134.666 707.337 135.655V130.636C707.337 125.021 706.699 120.853 705.423 118.13C704.147 115.408 701.871 114.004 698.617 113.919C694.874 113.813 692.429 114.77 691.301 116.812C690.164 118.832 689.196 121.267 688.409 124.128C687.92 125.999 686.548 127.467 684.283 128.509C682.007 129.53 679.604 130.04 677.052 130.04C673.99 130.04 671.15 129.338 668.545 127.913C665.929 126.467 664.727 124.372 664.93 121.618C665.206 117.088 668.566 113.409 675.01 110.602C681.476 107.794 689.94 106.433 700.404 106.518C707.996 106.518 714.877 107.486 721.033 109.411C727.18 111.346 732.061 114.472 735.666 118.811C739.26 123.128 741.068 128.839 741.068 135.953C740.951 141.089 740.897 145.97 740.897 150.585C740.897 155.21 740.897 159.007 740.897 161.984C740.897 166.695 742.025 169.205 744.3 169.513C745.491 169.598 746.523 169.258 747.405 168.492C748.309 167.705 749.245 167.407 750.213 167.599C751.117 167.801 751.574 168.535 751.574 169.811C751.574 171.087 750.851 172.49 749.405 174.022C747.98 175.553 745.64 176.893 742.386 178.02C739.122 179.147 734.687 179.658 729.073 179.551C723.649 179.466 718.907 178.339 714.823 176.191C710.74 174.011 708.294 170.746 707.507 166.408C705.232 170.746 701.733 174.054 697.001 176.319C692.258 178.584 687.229 179.721 681.901 179.721C675.202 179.721 669.534 178.084 664.887 174.83C660.261 171.576 657.656 167.195 657.06 161.686ZM689.77 153.094C689.451 156.752 690.078 159.794 691.642 162.197C693.226 164.611 695.651 165.759 698.915 165.642C702.371 165.557 704.583 164.111 705.551 161.304C706.54 158.496 707.093 155.168 707.21 151.308L707.337 143.184C706.848 142.992 705.976 142.716 704.7 142.375C703.424 142.035 702.031 141.865 700.532 141.865C698.256 141.865 696.023 142.588 693.811 144.034C691.599 145.459 690.249 148.479 689.77 153.094Z" fill="#005430"/>
<path d="M52.6772 11.9178C76.5272 11.9179 96.0872 30.2754 98.0054 53.6307C98.0577 53.6122 98.1102 53.5944 98.1626 53.576V49.6414C98.5295 51.2725 99.8813 52.4229 101.601 52.4061C101.674 52.4053 101.749 52.4043 101.826 52.4031C108.023 50.6073 114.586 49.6424 121.379 49.6424C159.322 49.6426 190.08 79.7138 190.081 116.808C190.08 153.903 159.322 183.975 121.379 183.975C83.4366 183.975 52.6775 153.903 52.6772 116.808V68.8533C52.3322 67.042 51.8762 65.5514 50.7954 63.49C49.0757 60.2101 46.4646 57.2212 42.936 55.9422C41.6689 55.483 40.4169 55.2533 38.9644 55.1619H22.1802C10.2387 55.1619 0.558127 45.4813 0.558105 33.5399C0.558105 21.5983 10.2387 11.9178 22.1802 11.9178H52.6772ZM120.906 94.7264C108.346 94.7266 98.1637 104.613 98.1636 116.808C98.1638 129.004 108.346 138.89 120.906 138.89C133.466 138.89 143.649 129.004 143.649 116.808C143.649 104.613 133.466 94.7265 120.906 94.7264ZM52.6333 55.1795L52.6772 64.6141V55.1619H48.6665L52.6333 55.1795Z" fill="#005430"/>
<mask id="mask0_574_2" style="mask-type:luminance" maskUnits="userSpaceOnUse" x="83" y="196" width="32" height="32">
<path d="M83.9829 196.209H114.88V227.115H83.9829V196.209Z" fill="white"/>
</mask>
<g mask="url(#mask0_574_2)">
<mask id="mask1_574_2" style="mask-type:luminance" maskUnits="userSpaceOnUse" x="83" y="196" width="32" height="32">
<path d="M99.4315 196.209C90.8964 196.209 83.9829 203.132 83.9829 211.657C83.9829 220.192 90.8964 227.115 99.4315 227.115C107.967 227.115 114.88 220.192 114.88 211.657C114.88 203.132 107.967 196.209 99.4315 196.209Z" fill="white"/>
</mask>
<g mask="url(#mask1_574_2)">
<path d="M83.9829 196.209H114.88V227.115H83.9829V196.209Z" fill="#005430"/>
</g>
</g>
<mask id="mask2_574_2" style="mask-type:luminance" maskUnits="userSpaceOnUse" x="140" y="196" width="32" height="32">
<path d="M140.485 196.208H171.382V227.115H140.485V196.208Z" fill="white"/>
</mask>
<g mask="url(#mask2_574_2)">
<mask id="mask3_574_2" style="mask-type:luminance" maskUnits="userSpaceOnUse" x="140" y="196" width="32" height="32">
<path d="M155.934 196.208C147.399 196.208 140.485 203.131 140.485 211.657C140.485 220.192 147.399 227.115 155.934 227.115C164.469 227.115 171.382 220.192 171.382 211.657C171.382 203.131 164.469 196.208 155.934 196.208Z" fill="white"/>
</mask>
<g mask="url(#mask3_574_2)">
<path d="M140.485 196.208H171.382V227.115H140.485V196.208Z" fill="#005430"/>
</g>
</g>
<mask id="mask4_574_2" style="mask-type:luminance" maskUnits="userSpaceOnUse" x="127" y="0" width="58" height="60">
<path d="M127.875 6.93245L176.687 0L184.122 52.3016L135.301 59.2435L127.875 6.93245Z" fill="white"/>
</mask>
<g mask="url(#mask4_574_2)">
<mask id="mask5_574_2" style="mask-type:luminance" maskUnits="userSpaceOnUse" x="127" y="0" width="58" height="60">
<path d="M127.875 6.93245L176.687 0L184.122 52.3016L135.301 59.2435L127.875 6.93245Z" fill="white"/>
</mask>
<g mask="url(#mask5_574_2)">
<path d="M176.639 42.8649C172.627 52.1018 166.397 54.1408 159.976 52.4527C159.834 51.2198 159.749 49.8827 159.73 48.4601C159.616 39.1663 169.099 22.352 169.213 22.1529C169.09 22.2951 158.696 33.7891 156.458 46.6203C156.173 48.2515 156.031 49.693 156.003 50.9638C149.089 47.6161 145.163 41.4234 149.62 31.1432C154.267 20.4269 173.727 12.5745 173.727 12.5745C173.727 12.5745 181.286 32.1485 176.639 42.8649Z" fill="#005430"/>
</g>
</g>
<mask id="mask6_574_2" style="mask-type:luminance" maskUnits="userSpaceOnUse" x="130" y="4" width="31" height="40">
<path d="M130.995 4.23848H160.128V43.0829H130.995V4.23848Z" fill="white"/>
</mask>
<g mask="url(#mask6_574_2)">
<mask id="mask7_574_2" style="mask-type:luminance" maskUnits="userSpaceOnUse" x="127" y="0" width="58" height="60">
<path d="M127.875 6.93246L176.686 1.52588e-05L184.121 52.3016L135.3 59.2435L127.875 6.93246Z" fill="white"/>
</mask>
<g mask="url(#mask7_574_2)">
<mask id="mask8_574_2" style="mask-type:luminance" maskUnits="userSpaceOnUse" x="127" y="0" width="58" height="60">
<path d="M127.875 6.93246L176.686 1.52588e-05L184.121 52.3016L135.3 59.2435L127.875 6.93246Z" fill="white"/>
</mask>
<g mask="url(#mask8_574_2)">
<path d="M159.417 18.0469C155.272 20.7782 151.119 24.2207 148.767 28.109C143.57 22.068 138.942 15.4485 138.828 15.2588C138.894 15.4674 141.872 23.1301 147.524 30.6126C145.77 34.9371 145.523 38.5219 146.367 41.4617C143.247 40.8453 140.099 38.7779 137.102 34.7C130.558 25.8045 133.394 6.16411 133.394 6.16411C133.394 6.16411 152.759 9.26522 159.417 18.0469Z" fill="#005430"/>
</g>
</g>
</g>
<path d="M223.352 189C226.851 189 230.2 189.373 233.421 190.109V195.912L233.293 195.955C231.437 194.909 229.667 194.163 227.96 193.736C226.275 193.288 224.557 193.053 222.797 193.053C220.152 193.053 217.773 193.651 215.672 194.845C213.56 196.019 211.896 197.693 210.68 199.88C209.485 202.077 208.888 204.595 208.888 207.432C208.888 210.333 209.496 212.893 210.723 215.112C211.971 217.331 213.688 219.069 215.885 220.317C218.104 221.544 220.621 222.152 223.437 222.152C225.997 222.152 228.216 221.725 230.093 220.872V217.459C230.093 213.619 229.293 210.312 227.704 207.517H236.451C236.131 208.285 235.875 209.267 235.683 210.461C235.512 211.635 235.427 212.829 235.427 214.045V218.141C235.427 220.701 235.651 222.664 236.109 224.029C234.2 224.776 232.141 225.352 229.923 225.779C227.704 226.173 225.485 226.376 223.267 226.376C218.659 226.376 214.829 225.565 211.789 223.944C208.771 222.323 206.552 220.168 205.133 217.459C203.704 214.76 203 211.784 203 208.541C203 204.765 203.853 201.395 205.56 198.429C207.267 195.443 209.656 193.128 212.728 191.475C215.821 189.832 219.363 189 223.352 189Z" fill="white"/>
<path d="M259.987 210.248C259.987 211.421 259.923 212.36 259.816 213.064L245.608 213.448C245.715 216.413 246.462 218.547 247.827 219.848C249.192 221.16 250.942 221.811 253.075 221.811C254.067 221.811 255.059 221.629 256.062 221.256C257.086 220.893 258.238 220.253 259.518 219.336L259.603 219.421L257.854 225.011C256.083 225.843 254.142 226.248 252.008 226.248C248.275 226.248 245.363 225.181 243.262 223.048C241.182 220.915 240.147 217.747 240.147 213.533C240.147 210.717 240.627 208.317 241.598 206.323C242.59 204.307 243.923 202.781 245.608 201.757C247.315 200.712 249.192 200.179 251.24 200.179C254.078 200.179 256.243 201.075 257.726 202.867C259.23 204.637 259.987 207.091 259.987 210.248ZM255.678 210.248C255.678 208.093 255.251 206.44 254.398 205.299C253.566 204.168 252.328 203.592 250.686 203.592C247.752 203.592 246.078 205.811 245.651 210.248H255.678Z" fill="white"/>
<path d="M270.651 200.563H277.648V203.934H270.651V219.038C270.651 220.179 270.907 220.99 271.419 221.47C271.952 221.96 272.763 222.195 273.851 222.195C275.152 222.195 276.624 221.939 278.245 221.427L278.331 221.555L275.259 225.822C273.893 226.078 272.699 226.206 271.675 226.206C269.541 226.206 267.984 225.758 267.024 224.84C266.053 223.902 265.573 222.387 265.573 220.275V203.934H262.331V203.763L270.48 195.102H270.651V200.563Z" fill="white"/>
<path d="M310.882 210.248C310.882 211.421 310.818 212.36 310.711 213.064L296.503 213.448C296.61 216.413 297.357 218.547 298.722 219.848C300.087 221.16 301.837 221.811 303.97 221.811C304.962 221.811 305.954 221.629 306.957 221.256C307.981 220.893 309.133 220.253 310.413 219.336L310.498 219.421L308.749 225.011C306.978 225.843 305.037 226.248 302.903 226.248C299.17 226.248 296.258 225.181 294.157 223.048C292.077 220.915 291.042 217.747 291.042 213.533C291.042 210.717 291.522 208.317 292.493 206.323C293.485 204.307 294.818 202.781 296.503 201.757C298.21 200.712 300.087 200.179 302.135 200.179C304.973 200.179 307.138 201.075 308.621 202.867C310.125 204.637 310.882 207.091 310.882 210.248ZM306.573 210.248C306.573 208.093 306.146 206.44 305.293 205.299C304.461 204.168 303.223 203.592 301.581 203.592C298.647 203.592 296.973 205.811 296.546 210.248H306.573Z" fill="white"/>
<path d="M335.284 200.563V200.733C334.57 201.704 334.004 202.643 333.578 203.549C333.172 204.435 332.692 205.747 332.127 207.475L326.026 225.949H320.778L315.487 208.285C314.975 206.696 314.431 205.288 313.866 204.061C313.29 202.845 312.596 201.736 311.775 200.733V200.563H320.095C319.839 201.363 319.711 202.184 319.711 203.037C319.711 203.635 319.764 204.232 319.882 204.829C319.988 205.427 320.191 206.227 320.479 207.219L324.191 219.677L328.415 206.963C328.895 205.512 329.14 204.104 329.14 202.739C329.14 201.971 329.034 201.245 328.842 200.563H335.284Z" fill="white"/>
<path d="M356.117 210.248C356.117 211.421 356.053 212.36 355.946 213.064L341.738 213.448C341.845 216.413 342.592 218.547 343.957 219.848C345.322 221.16 347.072 221.811 349.205 221.811C350.197 221.811 351.189 221.629 352.192 221.256C353.216 220.893 354.368 220.253 355.648 219.336L355.733 219.421L353.984 225.011C352.213 225.843 350.272 226.248 348.138 226.248C344.405 226.248 341.493 225.181 339.392 223.048C337.312 220.915 336.277 217.747 336.277 213.533C336.277 210.717 336.757 208.317 337.728 206.323C338.72 204.307 340.053 202.781 341.738 201.757C343.445 200.712 345.322 200.179 347.37 200.179C350.208 200.179 352.373 201.075 353.856 202.867C355.36 204.637 356.117 207.091 356.117 210.248ZM351.808 210.248C351.808 208.093 351.381 206.44 350.528 205.299C349.696 204.168 348.458 203.592 346.816 203.592C343.882 203.592 342.208 205.811 341.781 210.248H351.808Z" fill="white"/>
<path d="M360.295 225.949C360.722 224.787 361.021 223.677 361.191 222.621C361.383 221.576 361.49 220.381 361.49 219.037V207.432C361.49 206.099 361.405 204.915 361.234 203.891C361.085 202.845 360.829 201.736 360.466 200.563H366.823C366.653 201.587 366.567 202.696 366.567 203.891V206.493C367.869 204.189 369.085 202.589 370.194 201.672C371.325 200.733 372.605 200.264 374.034 200.264C374.77 200.264 375.378 200.371 375.869 200.563L375.229 206.792C373.863 205.939 372.669 205.512 371.645 205.512C369.767 205.512 368.071 206.397 366.567 208.157V219.037C366.567 220.403 366.653 221.619 366.823 222.664C367.015 223.688 367.346 224.787 367.805 225.949H360.295Z" fill="white"/>
<path d="M399.869 200.563V200.733C399.208 201.619 398.6 202.632 398.035 203.763C397.459 204.872 396.84 206.323 396.157 208.115L388.904 226.931C387.987 229.149 387.165 230.877 386.429 232.136C385.683 233.416 384.936 234.291 384.168 234.781H378.365V234.611C379.645 233.469 380.893 232.019 382.12 230.259C383.336 228.52 384.392 226.547 385.277 224.328L379.005 207.773C378.515 206.493 377.949 205.203 377.299 203.891C376.669 202.557 376.093 201.501 375.549 200.733V200.563H383.528C383.293 201.224 383.187 201.971 383.187 202.824C383.187 203.912 383.421 205.107 383.912 206.408L388.051 217.331L392.061 207.005C392.595 205.501 392.872 204.061 392.872 202.696C392.872 201.907 392.744 201.192 392.488 200.563H399.869Z" fill="white"/>
<path d="M408.405 200.563H415.403V203.934H408.405V219.038C408.405 220.179 408.661 220.99 409.173 221.47C409.707 221.96 410.517 222.195 411.605 222.195C412.907 222.195 414.379 221.939 416 221.427L416.085 221.555L413.013 225.822C411.648 226.078 410.453 226.206 409.429 226.206C407.296 226.206 405.739 225.758 404.779 224.84C403.808 223.902 403.328 222.387 403.328 220.275V203.934H400.085V203.763L408.235 195.102H408.405V200.563Z" fill="white"/>
<path d="M419.082 225.949C419.509 224.787 419.807 223.677 419.978 222.621C420.17 221.576 420.277 220.381 420.277 219.037V198.899C420.277 196.915 420.17 195.315 419.978 194.12C419.775 192.904 419.477 191.763 419.082 190.707L426.421 189.299C426.079 190.611 425.802 192.328 425.61 194.461C425.439 196.573 425.354 198.813 425.354 201.203V205.213C426.911 203.251 428.255 201.928 429.365 201.245C430.474 200.541 431.765 200.179 433.247 200.179C435.178 200.179 436.789 200.819 438.069 202.099C439.37 203.379 440.031 205.235 440.031 207.645V219.037C440.031 220.381 440.117 221.576 440.287 222.621C440.458 223.677 440.767 224.787 441.226 225.949H433.674C434.154 224.787 434.485 223.688 434.655 222.664C434.847 221.619 434.954 220.403 434.954 219.037V210.205C434.954 208.413 434.527 207.091 433.674 206.237C432.821 205.363 431.679 204.915 430.261 204.915C429.493 204.915 428.703 205.064 427.914 205.341C427.146 205.597 426.293 206.013 425.354 206.579V219.037C425.354 220.403 425.439 221.619 425.61 222.664C425.781 223.688 426.101 224.787 426.591 225.949H419.082Z" fill="white"/>
<path d="M449.84 190.067C450.832 190.067 451.675 190.43 452.357 191.134C453.04 191.816 453.381 192.648 453.381 193.608C453.381 194.611 453.04 195.464 452.357 196.168C451.675 196.851 450.832 197.192 449.84 197.192C448.837 197.192 447.984 196.851 447.28 196.168C446.597 195.464 446.256 194.611 446.256 193.608C446.256 192.648 446.597 191.816 447.28 191.134C447.984 190.43 448.837 190.067 449.84 190.067ZM453.595 200.563C453.136 201.736 452.805 202.846 452.613 203.891C452.443 204.915 452.357 206.11 452.357 207.475V219.038C452.357 220.403 452.443 221.619 452.613 222.664C452.805 223.688 453.136 224.787 453.595 225.95H446.085C446.512 224.787 446.811 223.678 446.981 222.622C447.173 221.576 447.28 220.382 447.28 219.038V207.475C447.28 206.142 447.173 204.947 446.981 203.891C446.811 202.846 446.512 201.736 446.085 200.563H453.595Z" fill="white"/>
<path d="M458.876 225.949C459.303 224.787 459.602 223.677 459.772 222.621C459.964 221.576 460.071 220.381 460.071 219.037V207.432C460.071 206.099 459.986 204.915 459.815 203.891C459.666 202.845 459.41 201.736 459.047 200.563H465.404C465.234 201.587 465.148 202.696 465.148 203.891V205.213L469.159 200.989C470.236 200.456 471.527 200.179 473.042 200.179C474.972 200.179 476.583 200.819 477.863 202.099C479.164 203.379 479.826 205.235 479.826 207.645V219.037C479.826 220.381 479.911 221.576 480.082 222.621C480.252 223.677 480.562 224.787 481.02 225.949H473.468C473.948 224.787 474.279 223.688 474.45 222.664C474.642 221.619 474.748 220.403 474.748 219.037V208.883C474.748 207.688 474.3 206.739 473.426 206.024C472.54 205.288 471.42 204.915 470.055 204.915C469.287 204.915 468.498 205.064 467.708 205.341C466.94 205.597 466.087 206.013 465.148 206.579V219.037C465.148 220.403 465.234 221.619 465.404 222.664C465.596 223.688 465.927 224.787 466.386 225.949H458.876Z" fill="white"/>
<path d="M506.918 205.214C505.35 204.99 503.846 204.638 502.395 204.147C503.643 205.662 504.273 207.283 504.273 209.011C504.273 210.611 503.857 212.03 503.035 213.278C502.235 214.504 501.094 215.475 499.622 216.179C498.139 216.862 496.433 217.203 494.502 217.203C493.617 217.203 492.774 217.16 491.985 217.075C491.185 217.875 490.79 218.611 490.79 219.294C490.79 220.296 491.579 220.787 493.179 220.787L497.531 220.744C498.438 220.723 499.718 220.702 501.371 220.702C502.619 220.936 503.761 221.576 504.785 222.622C505.83 223.678 506.363 224.862 506.363 226.163C506.363 227.24 506.086 228.222 505.553 229.107C505.009 230.014 504.209 230.91 503.163 231.795C500.486 234.014 497.286 235.123 493.563 235.123C490.833 235.123 488.71 234.622 487.206 233.63C485.723 232.627 484.987 231.304 484.987 229.662C484.987 229.15 485.073 228.659 485.243 228.211C486.374 227.528 487.291 226.931 487.974 226.419C488.678 225.907 489.382 225.31 490.065 224.627C488.614 224.542 487.505 224.243 486.737 223.731C485.969 223.219 485.585 222.579 485.585 221.811C485.585 221.246 485.691 220.776 485.926 220.403C486.182 220.008 486.619 219.592 487.249 219.166L490.875 216.734C488.966 215.795 487.526 214.75 486.566 213.576C485.627 212.414 485.158 211.038 485.158 209.438C485.158 207.763 485.553 206.216 486.353 204.787C487.174 203.336 488.326 202.216 489.809 201.416C491.313 200.595 493.019 200.179 494.929 200.179C496.977 200.179 498.705 200.606 500.134 201.459C502.694 201.288 504.955 200.851 506.918 200.136V205.214ZM495.398 214.515C496.593 214.515 497.531 214.11 498.214 213.278C498.897 212.456 499.238 211.304 499.238 209.822C499.238 207.923 498.747 206.323 497.787 205.043C496.849 203.763 495.622 203.123 494.118 203.123C492.923 203.123 491.963 203.614 491.259 204.574C490.545 205.544 490.193 206.792 490.193 208.328C490.193 210.206 490.662 211.72 491.601 212.851C492.561 213.96 493.83 214.515 495.398 214.515ZM494.075 224.627C493.414 224.659 492.55 224.67 491.473 224.67C490.982 225.267 490.641 225.779 490.449 226.206C490.246 226.654 490.15 227.155 490.15 227.699C490.15 228.776 490.545 229.63 491.345 230.259C492.166 230.878 493.457 231.198 495.227 231.198C497.105 231.198 498.79 230.92 500.305 230.387C500.582 230.046 500.817 229.587 500.987 229.022C501.179 228.478 501.286 227.923 501.286 227.358C501.286 225.512 499.963 224.584 497.318 224.584L494.075 224.627Z" fill="white"/>
<path d="M525.024 190.067C526.016 190.067 526.858 190.43 527.541 191.134C528.224 191.816 528.565 192.648 528.565 193.608C528.565 194.611 528.224 195.464 527.541 196.168C526.858 196.851 526.016 197.192 525.024 197.192C524.021 197.192 523.168 196.851 522.464 196.168C521.781 195.464 521.44 194.611 521.44 193.608C521.44 192.648 521.781 191.816 522.464 191.134C523.168 190.43 524.021 190.067 525.024 190.067ZM528.778 200.563C528.32 201.736 527.989 202.846 527.797 203.891C527.626 204.915 527.541 206.11 527.541 207.475V219.038C527.541 220.403 527.626 221.619 527.797 222.664C527.989 223.688 528.32 224.787 528.778 225.95H521.269C521.696 224.787 521.994 223.678 522.165 222.622C522.357 221.576 522.464 220.382 522.464 219.038V207.475C522.464 206.142 522.357 204.947 522.165 203.891C521.994 202.846 521.696 201.736 521.269 200.563H528.778Z" fill="white"/>
<path d="M534.06 225.949C534.487 224.787 534.785 223.677 534.956 222.621C535.148 221.576 535.255 220.381 535.255 219.037V207.432C535.255 206.099 535.169 204.915 534.999 203.891C534.849 202.845 534.593 201.736 534.231 200.563H540.588C540.417 201.587 540.332 202.696 540.332 203.891V205.213L544.343 200.989C545.42 200.456 546.711 200.179 548.225 200.179C550.156 200.179 551.767 200.819 553.047 202.099C554.348 203.379 555.009 205.235 555.009 207.645V219.037C555.009 220.381 555.095 221.576 555.265 222.621C555.436 223.677 555.745 224.787 556.204 225.949H548.652C549.132 224.787 549.463 223.688 549.633 222.664C549.825 221.619 549.932 220.403 549.932 219.037V208.883C549.932 207.688 549.484 206.739 548.609 206.024C547.724 205.288 546.604 204.915 545.239 204.915C544.471 204.915 543.681 205.064 542.892 205.341C542.124 205.597 541.271 206.013 540.332 206.579V219.037C540.332 220.403 540.417 221.619 540.588 222.664C540.78 223.688 541.111 224.787 541.569 225.949H534.06Z" fill="white"/>
<path d="M599.113 225.949C599.561 224.787 599.881 223.677 600.051 222.621C600.222 221.576 600.307 220.381 600.307 219.037V209.864C600.307 208.157 599.923 206.909 599.155 206.109C598.387 205.32 597.321 204.915 595.955 204.915C595.273 204.915 594.59 205.032 593.907 205.256C593.246 205.459 592.51 205.843 591.689 206.408C591.742 207.005 591.774 207.453 591.774 207.731V219.037C591.774 220.381 591.859 221.576 592.03 222.621C592.201 223.677 592.51 224.787 592.969 225.949H585.417C585.897 224.787 586.227 223.688 586.398 222.664C586.59 221.619 586.697 220.403 586.697 219.037V209.907C586.697 208.2 586.334 206.952 585.63 206.152C584.915 205.363 583.934 204.957 582.686 204.957C581.971 204.957 581.235 205.085 580.467 205.341C579.721 205.597 578.91 206.003 578.035 206.536V219.037C578.035 220.403 578.121 221.619 578.291 222.664C578.483 223.688 578.814 224.787 579.273 225.949H571.763C572.19 224.787 572.489 223.677 572.659 222.621C572.851 221.576 572.958 220.381 572.958 219.037V207.432C572.958 206.099 572.873 204.915 572.702 203.891C572.553 202.845 572.297 201.736 571.934 200.563H578.291C578.121 201.587 578.035 202.696 578.035 203.891V205.171L579.657 202.568C580.083 201.832 580.766 201.245 581.705 200.819C582.643 200.392 583.71 200.179 584.905 200.179C586.494 200.179 587.891 200.627 589.086 201.501C590.281 202.355 591.091 203.613 591.518 205.256L593.097 202.568C593.545 201.8 594.227 201.224 595.145 200.819C596.083 200.392 597.129 200.179 598.302 200.179C600.35 200.179 602.035 200.819 603.379 202.099C604.745 203.357 605.427 205.213 605.427 207.688V219.037C605.427 220.381 605.513 221.576 605.683 222.621C605.875 223.645 606.206 224.755 606.665 225.949H599.113Z" fill="white"/>
<path d="M615.271 190.067C616.263 190.067 617.105 190.43 617.788 191.134C618.471 191.816 618.812 192.648 618.812 193.608C618.812 194.611 618.471 195.464 617.788 196.168C617.105 196.851 616.263 197.192 615.271 197.192C614.268 197.192 613.415 196.851 612.711 196.168C612.028 195.464 611.687 194.611 611.687 193.608C611.687 192.648 612.028 191.816 612.711 191.134C613.415 190.43 614.268 190.067 615.271 190.067ZM619.025 200.563C618.567 201.736 618.236 202.846 618.044 203.891C617.873 204.915 617.788 206.11 617.788 207.475V219.038C617.788 220.403 617.873 221.619 618.044 222.664C618.236 223.688 618.567 224.787 619.025 225.95H611.516C611.943 224.787 612.241 223.678 612.412 222.622C612.604 221.576 612.711 220.382 612.711 219.038V207.475C612.711 206.142 612.604 204.947 612.412 203.891C612.241 202.846 611.943 201.736 611.516 200.563H619.025Z" fill="white"/>
<path d="M624.307 225.949C624.734 224.787 625.032 223.677 625.203 222.621C625.395 221.576 625.502 220.381 625.502 219.037V207.432C625.502 206.099 625.416 204.915 625.246 203.891C625.096 202.845 624.84 201.736 624.478 200.563H630.835C630.664 201.587 630.579 202.696 630.579 203.891V205.213L634.59 200.989C635.667 200.456 636.958 200.179 638.472 200.179C640.403 200.179 642.014 200.819 643.294 202.099C644.595 203.379 645.256 205.235 645.256 207.645V219.037C645.256 220.381 645.342 221.576 645.512 222.621C645.683 223.677 645.992 224.787 646.451 225.949H638.899C639.379 224.787 639.71 223.688 639.88 222.664C640.072 221.619 640.179 220.403 640.179 219.037V208.883C640.179 207.688 639.731 206.739 638.856 206.024C637.971 205.288 636.851 204.915 635.486 204.915C634.718 204.915 633.928 205.064 633.139 205.341C632.371 205.597 631.518 206.013 630.579 206.579V219.037C630.579 220.403 630.664 221.619 630.835 222.664C631.027 223.688 631.358 224.787 631.816 225.949H624.307Z" fill="white"/>
<path d="M658.44 226.291C656.84 226.291 655.517 225.928 654.472 225.181C653.416 224.413 652.616 223.347 652.082 221.981V207.475C652.082 206.141 651.997 204.947 651.826 203.891C651.656 202.845 651.336 201.736 650.888 200.563H658.44C657.949 201.736 657.629 202.845 657.458 203.891C657.288 204.915 657.202 206.109 657.202 207.475V216.947C657.202 218.547 657.544 219.72 658.226 220.488C658.909 221.235 659.954 221.597 661.384 221.597C662.205 221.597 662.984 221.501 663.73 221.299C664.498 221.075 665.362 220.691 666.333 220.147V207.475C666.333 206.141 666.226 204.947 666.034 203.891C665.864 202.845 665.565 201.736 665.138 200.563H672.605C672.146 201.736 671.837 202.845 671.666 203.891C671.496 204.947 671.41 206.141 671.41 207.475V219.037C671.41 220.381 671.496 221.576 671.666 222.621C671.837 223.677 672.146 224.787 672.605 225.949H666.034C666.226 224.925 666.333 223.453 666.333 221.512L663.005 225.395C661.661 225.992 660.146 226.291 658.44 226.291Z" fill="white"/>
<path d="M684.362 200.563H691.359V203.934H684.362V219.038C684.362 220.179 684.618 220.99 685.13 221.47C685.663 221.96 686.474 222.195 687.562 222.195C688.863 222.195 690.335 221.939 691.956 221.427L692.042 221.555L688.97 225.822C687.604 226.078 686.41 226.206 685.386 226.206C683.252 226.206 681.695 225.758 680.735 224.84C679.764 223.902 679.284 222.387 679.284 220.275V203.934H676.042V203.763L684.191 195.102H684.362V200.563Z" fill="white"/>
<path d="M713.897 210.248C713.897 211.421 713.833 212.36 713.726 213.064L699.518 213.448C699.625 216.413 700.371 218.547 701.737 219.848C703.102 221.16 704.851 221.811 706.985 221.811C707.977 221.811 708.969 221.629 709.971 221.256C710.995 220.893 712.147 220.253 713.427 219.336L713.513 219.421L711.763 225.011C709.993 225.843 708.051 226.248 705.918 226.248C702.185 226.248 699.273 225.181 697.171 223.048C695.091 220.915 694.057 217.747 694.057 213.533C694.057 210.717 694.537 208.317 695.507 206.323C696.499 204.307 697.833 202.781 699.518 201.757C701.225 200.712 703.102 200.179 705.15 200.179C707.987 200.179 710.153 201.075 711.635 202.867C713.139 204.637 713.897 207.091 713.897 210.248ZM709.587 210.248C709.587 208.093 709.161 206.44 708.307 205.299C707.475 204.168 706.238 203.592 704.595 203.592C701.662 203.592 699.987 205.811 699.561 210.248H709.587Z" fill="white"/>
<path d="M723.579 226.248C722.384 226.248 721.296 226.173 720.336 226.035C719.397 225.896 718.309 225.651 717.093 225.309L717.392 218.269H717.52C718.544 219.976 719.461 221.171 720.293 221.853C721.147 222.515 722.171 222.835 723.365 222.835C724.475 222.835 725.307 222.568 725.883 222.024C726.448 221.491 726.736 220.723 726.736 219.72C726.736 218.781 726.459 217.992 725.925 217.331C725.381 216.648 724.283 215.795 722.64 214.771C720.869 213.608 719.632 212.467 718.928 211.357C718.213 210.227 717.861 208.904 717.861 207.389C717.861 206.024 718.213 204.808 718.928 203.72C719.632 202.611 720.613 201.747 721.872 201.117C723.12 200.499 724.571 200.179 726.224 200.179C727.984 200.179 729.637 200.435 731.173 200.947V205.768H731.045C730.075 204.947 729.221 204.381 728.485 204.061C727.739 203.72 726.971 203.549 726.181 203.549C725.157 203.549 724.368 203.805 723.835 204.317C723.291 204.808 723.024 205.469 723.024 206.323C723.024 207.261 723.301 208.093 723.877 208.797C724.443 209.48 725.467 210.269 726.949 211.144C728.741 212.253 730.021 213.384 730.789 214.515C731.579 215.656 731.984 217.021 731.984 218.611C731.984 221.032 731.184 222.909 729.595 224.243C728.027 225.587 726.021 226.248 723.579 226.248Z" fill="white"/>
<path d="M738.459 204.101C737.403 204.133 736.635 203.845 736.155 203.248C735.696 202.629 735.654 201.776 736.027 200.688C736.454 199.387 737.158 198.725 738.16 198.725C738.758 198.725 739.366 198.981 739.995 199.493L742.683 201.584L741.574 198.555C741.2 197.531 741.243 196.709 741.702 196.08C742.15 195.461 742.939 195.141 744.048 195.141C745.158 195.141 745.926 195.461 746.352 196.08C746.779 196.709 746.822 197.531 746.48 198.555L745.371 201.541L747.888 199.536C748.592 199.003 749.222 198.725 749.766 198.725C750.758 198.725 751.483 199.408 751.942 200.773C752.283 201.861 752.219 202.725 751.771 203.376C751.312 204.005 750.534 204.304 749.424 204.272L746.096 204.144L748.784 205.851C749.723 206.48 750.203 207.173 750.235 207.941C750.256 208.709 749.808 209.456 748.87 210.16C748.24 210.651 747.632 210.885 747.035 210.885C746.011 210.885 745.307 210.224 744.944 208.88L743.878 205.424L742.939 208.752C742.512 210.149 741.766 210.843 740.72 210.843C740.091 210.843 739.419 210.608 738.715 210.117C737.83 209.435 737.392 208.699 737.392 207.899C737.414 207.109 737.926 206.405 738.928 205.808L741.702 204.059L738.459 204.101Z" fill="white"/>
</svg>
